<svg width="92" height="40" viewBox="0 0 92 40" fill="none" xmlns="http://www.w3.org/2000/svg">
<path d="M0.188965 15.2954L1.97776 25.1201H4.19313L5.29393 17.9924H5.32144L6.42225 25.1201H8.63761L10.4264 15.2954H8.52752L7.44049 22.5607H7.41297L6.25712 15.2954H4.35825L3.2024 22.5607H3.17488L2.08784 15.2954H0.188965Z" fill="white"/>
<path d="M17.1243 15.2954H11.6341V25.1201H17.2619V23.4964H13.6155V20.8545H16.9179V19.2308H13.6155V16.9191H17.1243V15.2954Z" fill="white"/>
<path d="M20.653 23.6615V20.7031H21.5061C21.7263 20.7031 21.9281 20.726 22.1115 20.7719C22.295 20.8178 22.451 20.9003 22.5794 21.0196C22.717 21.1297 22.8225 21.281 22.8959 21.4737C22.9784 21.6571 23.0197 21.891 23.0197 22.1754C23.0197 22.7442 22.8729 23.134 22.5794 23.345C22.2858 23.556 21.9006 23.6615 21.4235 23.6615H20.653ZM20.653 19.3271V16.754H21.3685C21.8639 16.754 22.2262 16.8503 22.4555 17.0429C22.6849 17.2356 22.7995 17.5658 22.7995 18.0336C22.7995 18.5015 22.6711 18.8363 22.4143 19.0381C22.1666 19.2308 21.7675 19.3271 21.2171 19.3271H20.653ZM18.6715 15.2954V25.1201H22.0152C22.5931 25.1201 23.0747 25.0421 23.46 24.8861C23.8545 24.7302 24.171 24.5238 24.4095 24.2669C24.6571 24.0009 24.8314 23.6936 24.9323 23.345C25.0333 22.9964 25.0837 22.6295 25.0837 22.2442C25.0837 21.5837 24.9232 21.0563 24.6021 20.6618C24.281 20.2674 23.8453 20.0334 23.2949 19.9601V19.9325C23.7903 19.7949 24.1618 19.5381 24.4095 19.162C24.6571 18.7767 24.781 18.318 24.781 17.786C24.781 17.3181 24.7122 16.9237 24.5746 16.6026C24.437 16.2815 24.2443 16.0247 23.9967 15.8321C23.749 15.6394 23.4509 15.5018 23.1023 15.4193C22.7629 15.3367 22.3913 15.2954 21.9877 15.2954H18.6715Z" fill="white"/>
<path fill-rule="evenodd" clip-rule="evenodd" d="M65.0351 10L47.7146 0L30.394 10V30L47.7146 40L65.0351 30V10ZM39.4607 10.6613C37.408 10.8082 36.3137 11.5845 35.7147 13.5183V14.0842C35.8735 14.7752 36.096 15.4312 36.5752 15.9828C37.3168 16.8398 38.2647 17.3658 39.302 17.7734C40.8603 18.3858 42.4585 18.3166 44.0444 17.9981C45.0978 17.7867 46.1437 17.4786 47.1496 17.0976C47.8883 16.818 47.991 16.4303 47.5936 15.7591C47.18 15.0615 46.7151 14.3828 46.196 13.759C44.4532 11.6642 42.2988 10.4594 39.4607 10.6613ZM55.0056 29.5656C53.4245 30.7353 51.6456 30.8073 49.8287 30.668C49.6814 30.6566 49.5093 30.5305 49.4085 30.4082C49.2271 30.1881 49.0445 29.9687 48.8619 29.7493L48.8614 29.7487C48.2304 28.9907 47.599 28.2322 47.0173 27.4384C46.0494 26.119 45.7538 24.5549 45.5627 22.9719C45.4875 22.3491 45.4467 21.7216 45.4105 21.096C45.401 20.9358 45.4153 20.7206 45.5123 20.6154C46.5419 19.5006 47.6268 18.4541 49.1527 18.0323C49.3405 17.9806 49.5309 17.9377 49.7453 17.8894L49.7454 17.8894L49.7455 17.8894L49.7456 17.8894L49.7459 17.8893L49.746 17.8893C49.8538 17.865 49.9676 17.8393 50.0902 17.8105C49.3933 22.7397 51.6485 26.3806 55.0056 29.5656ZM56.7447 28.0762C57.5509 26.9928 58.0501 25.7927 58.0995 24.4685C58.1841 23.44 57.9027 22.2001 57.2837 21.0873C56.1362 19.0208 54.4001 17.8634 51.9985 17.7506C51.6457 17.7345 51.506 17.8682 51.3985 18.1867C51.0829 19.1222 50.945 20.073 51.0116 21.0598C51.1314 22.839 51.9785 24.3206 52.9416 25.7472C53.6528 26.8003 54.5237 27.7056 55.6665 28.3094C56.2902 28.6393 56.3349 28.6269 56.7447 28.0762ZM47.5234 30.5012C45.7246 30.341 43.9647 30.1049 42.3208 29.3741C41.1086 28.8347 40.8623 28.266 41.2892 27.0091C41.8493 25.3585 42.8419 23.9539 43.9033 22.4519L43.9033 22.4519L44.0274 22.2762C44.5199 25.3796 45.5249 28.1399 47.5234 30.5012ZM48.9386 13.8426C48.9371 13.8693 48.9356 13.8961 48.934 13.923C48.9435 13.9951 48.9512 14.0801 48.9598 14.1737C48.9814 14.4099 49.008 14.7014 49.0795 14.9818C49.379 16.1515 50.2927 16.5098 51.3195 15.8643C52.3768 15.2008 53.1155 14.2434 53.6498 13.1428C53.8324 12.7684 53.8999 12.2973 53.8837 11.8755C53.8457 10.8887 52.9881 9.96071 52.1524 9.92374C51.2168 9.88204 50.4286 10.2081 49.7945 10.901C49.0605 11.7032 49.0038 12.6982 48.9386 13.8426Z" fill="#F4CB45"/>
<path d="M73.0688 23.6615V20.7031H73.922C74.1421 20.7031 74.3439 20.726 74.5274 20.7719C74.7109 20.8178 74.8668 20.9003 74.9952 21.0196C75.1328 21.1297 75.2383 21.281 75.3117 21.4737C75.3943 21.6571 75.4356 21.891 75.4356 22.1754C75.4356 22.7442 75.2888 23.134 74.9952 23.345C74.7017 23.556 74.3164 23.6615 73.8394 23.6615H73.0688ZM73.0688 19.3271V16.754H73.7844C74.2797 16.754 74.6421 16.8503 74.8714 17.0429C75.1007 17.2356 75.2154 17.5658 75.2154 18.0336C75.2154 18.5015 75.087 18.8363 74.8301 19.0381C74.5824 19.2308 74.1834 19.3271 73.633 19.3271H73.0688ZM71.0874 15.2954V25.1201H74.4311C75.009 25.1201 75.4906 25.0421 75.8759 24.8861C76.2703 24.7302 76.5868 24.5238 76.8253 24.2669C77.073 24.0009 77.2473 23.6936 77.3482 23.345C77.4491 22.9964 77.4996 22.6295 77.4996 22.2442C77.4996 21.5837 77.339 21.0563 77.018 20.6618C76.6969 20.2674 76.2612 20.0334 75.7108 19.9601V19.9325C76.2061 19.7949 76.5776 19.5381 76.8253 19.162C77.073 18.7767 77.1968 18.318 77.1968 17.786C77.1968 17.3181 77.128 16.9237 76.9904 16.6026C76.8528 16.2815 76.6602 16.0247 76.4125 15.8321C76.1648 15.6394 75.8667 15.5018 75.5181 15.4193C75.1787 15.3367 74.8072 15.2954 74.4036 15.2954H71.0874Z" fill="white"/>
<path d="M84.6364 15.2954H79.1461V25.1201H84.774V23.4964H81.1276V20.8545H84.43V19.2308H81.1276V16.9191H84.6364V15.2954Z" fill="white"/>
<path d="M91.6739 15.2954H86.1836V25.1201H91.8115V23.4964H88.1651V20.8545H91.4675V19.2308H88.1651V16.9191H91.6739V15.2954Z" fill="white"/>
</svg>
